<?xml version="1.0" encoding="utf-8"?>
<!-- Generator: Adobe Illustrator 17.0.2, SVG Export Plug-In . SVG Version: 6.00 Build 0)  -->
<!DOCTYPE svg PUBLIC "-//W3C//DTD SVG 1.1//EN" "http://www.w3.org/Graphics/SVG/1.1/DTD/svg11.dtd">
<svg version="1.1" id="Camada_5" xmlns="http://www.w3.org/2000/svg" xmlns:xlink="http://www.w3.org/1999/xlink" x="0px" y="0px"
	 width="1280px" height="800px" viewBox="0 0 1280 800" enable-background="new 0 0 1280 800" xml:space="preserve">
<g>
	<linearGradient id="SVGID_1_" gradientUnits="userSpaceOnUse" x1="45.1901" y1="502.8693" x2="1232.6593" y2="502.8693">
		<stop  offset="0" style="stop-color:#DEDEDD"/>
		<stop  offset="0.8631" style="stop-color:#E3E3E2"/>
		<stop  offset="1" style="stop-color:#E5E5E4"/>
	</linearGradient>
	<path fill="url(#SVGID_1_)" d="M1230.684,292.888c-36.799-113.597-197.52,112.725-347.144,216.622
		C746.354,604.775,407.338,633.499,45.19,454.269c0,0,450.524,559.12,1044.131,123.835
		C1162.046,524.782,1246.715,343.608,1230.684,292.888z"/>
	<path fill="#CBCACA" d="M375.764,567.631c0,0,216.457,158.802,521.933,124.415c0,0-303.602,123.646-563.843-134.352
		L375.764,567.631z"/>
	<path fill="#F2F2F2" d="M1215.231,267.825c0,0,40.349,80.205-47.736,122.127C1167.495,389.952,1228.897,340.415,1215.231,267.825z"
		/>
	<path fill="#F6F7F8" d="M1215.231,267.825c78.464,54.014-67.163,563.819-651.303,408.436
		C218.573,560.954,151.876,355.174,133.768,56.038C239.739,382.661,1316.069,581.921,1215.231,267.825z"/>
</g>
</svg>
